/* XPM */
static char * icon_xpm[] = {
"32 32 223 2",
"  	c #000000",
". 	c #0F0F0F",
"+ 	c #101010",
"@ 	c #111111",
"# 	c #121212",
"$ 	c #131313",
"% 	c #141414",
"& 	c #151515",
"* 	c #161616",
"= 	c #171717",
"- 	c #181818",
"; 	c #191919",
"> 	c #1A1A1A",
", 	c #1B1B1B",
"' 	c #1C1C1C",
") 	c #1D1D1D",
"! 	c #1E1E1E",
"~ 	c #1F1F1F",
"{ 	c #202020",
"] 	c #212121",
"^ 	c #222222",
"/ 	c #232323",
"( 	c #242424",
"_ 	c #252525",
": 	c #262626",
"< 	c #272727",
"[ 	c #282828",
"} 	c #292929",
"| 	c #2A2A2A",
"1 	c #2B2B2B",
"2 	c #2C2C2C",
"3 	c #2D2D2D",
"4 	c #2E2E2E",
"5 	c #2F2F2F",
"6 	c #303030",
"7 	c #313131",
"8 	c #323232",
"9 	c #333333",
"0 	c #353535",
"a 	c #363636",
"b 	c #373737",
"c 	c #383838",
"d 	c #393939",
"e 	c #3A3A3A",
"f 	c #3B3B3B",
"g 	c #3D3D3D",
"h 	c #3E3E3E",
"i 	c #3F3F3F",
"j 	c #414141",
"k 	c #424242",
"l 	c #434343",
"m 	c #444444",
"n 	c #474747",
"o 	c #484848",
"p 	c #494949",
"q 	c #4A4A4A",
"r 	c #4B4B4B",
"s 	c #4C4C4C",
"t 	c #4D4D4D",
"u 	c #4E4E4E",
"v 	c #505050",
"w 	c #515151",
"x 	c #535353",
"y 	c #545454",
"z 	c #555555",
"A 	c #565656",
"B 	c #585858",
"C 	c #5A5A5A",
"D 	c #5B5B5B",
"E 	c #5E5E5E",
"F 	c #5F5F5F",
"G 	c #606060",
"H 	c #616161",
"I 	c #636363",
"J 	c #656565",
"K 	c #666666",
"L 	c #676767",
"M 	c #686868",
"N 	c #696969",
"O 	c #6A6A6A",
"P 	c #6D6D6D",
"Q 	c #6E6E6E",
"R 	c #6F6F6F",
"S 	c #707070",
"T 	c #717171",
"U 	c #727272",
"V 	c #737373",
"W 	c #747474",
"X 	c #757575",
"Y 	c #767676",
"Z 	c #777777",
"` 	c #787878",
" .	c #7A7A7A",
"..	c #7B7B7B",
"+.	c #7C7C7C",
"@.	c #7D7D7D",
"#.	c #7E7E7E",
"$.	c #7F7F7F",
"%.	c #808080",
"&.	c #818181",
"*.	c #828282",
"=.	c #838383",
"-.	c #848484",
";.	c #858585",
">.	c #868686",
",.	c #878787",
"'.	c #888888",
").	c #898989",
"!.	c #8A8A8A",
"~.	c #8C8C8C",
"{.	c #8D8D8D",
"].	c #8E8E8E",
"^.	c #8F8F8F",
"/.	c #909090",
"(.	c #919191",
"_.	c #929292",
":.	c #939393",
"<.	c #949494",
"[.	c #959595",
"}.	c #969696",
"|.	c #979797",
"1.	c #989898",
"2.	c #999999",
"3.	c #9A9A9A",
"4.	c #9B9B9B",
"5.	c #9C9C9C",
"6.	c #9D9D9D",
"7.	c #9E9E9E",
"8.	c #9F9F9F",
"9.	c #A0A0A0",
"0.	c #A1A1A1",
"a.	c #A2A2A2",
"b.	c #A3A3A3",
"c.	c #A4A4A4",
"d.	c #A5A5A5",
"e.	c #A6A6A6",
"f.	c #A7A7A7",
"g.	c #A8A8A8",
"h.	c #A9A9A9",
"i.	c #AAAAAA",
"j.	c #ABABAB",
"k.	c #ACACAC",
"l.	c #ADADAD",
"m.	c #AEAEAE",
"n.	c #AFAFAF",
"o.	c #B0B0B0",
"p.	c #B1B1B1",
"q.	c #B2B2B2",
"r.	c #B3B3B3",
"s.	c #B4B4B4",
"t.	c #B5B5B5",
"u.	c #B6B6B6",
"v.	c #B7B7B7",
"w.	c #B8B8B8",
"x.	c #B9B9B9",
"y.	c #BABABA",
"z.	c #BBBBBB",
"A.	c #BCBCBC",
"B.	c #BDBDBD",
"C.	c #BEBEBE",
"D.	c #BFBFBF",
"E.	c #C0C0C0",
"F.	c #C1C1C1",
"G.	c #C2C2C2",
"H.	c #C3C3C3",
"I.	c #C4C4C4",
"J.	c #C5C5C5",
"K.	c #C6C6C6",
"L.	c #C7C7C7",
"M.	c #C8C8C8",
"N.	c #C9C9C9",
"O.	c #CACACA",
"P.	c #CBCBCB",
"Q.	c #CCCCCC",
"R.	c #CDCDCD",
"S.	c #CECECE",
"T.	c #CFCFCF",
"U.	c #D0D0D0",
"V.	c #D1D1D1",
"W.	c #D2D2D2",
"X.	c #D4D4D4",
"Y.	c #D5D5D5",
"Z.	c #D6D6D6",
"`.	c #D7D7D7",
" +	c #D8D8D8",
".+	c #D9D9D9",
"++	c #DADADA",
"@+	c #DBDBDB",
"#+	c #DCDCDC",
"$+	c #DDDDDD",
"%+	c #DEDEDE",
"&+	c #DFDFDF",
"*+	c #E1E1E1",
"=+	c #E2E2E2",
"-+	c #E3E3E3",
";+	c #E4E4E4",
">+	c #E5E5E5",
",+	c #E6E6E6",
"'+	c #E7E7E7",
")+	c #E8E8E8",
"!+	c #E9E9E9",
"~+	c #EAEAEA",
"{+	c #EBEBEB",
"]+	c #ECECEC",
"^+	c #EDEDED",
"/+	c #EEEEEE",
"(+	c #EFEFEF",
"_+	c #F0F0F0",
":+	c #F1F1F1",
"<+	c #F2F2F2",
"[+	c #F3F3F3",
"}+	c #F4F4F4",
"|+	c #F5F5F5",
"1+	c #F6F6F6",
"2+	c #F7F7F7",
"3+	c #F8F8F8",
"4+	c #F9F9F9",
"5+	c #FAFAFA",
"6+	c #FBFBFB",
"7+	c #FCFCFC",
"8+	c #FDFDFD",
"9+	c #FEFEFE",
"0+	c #FFFFFF",
"%.%.%.%.%.%.%.%.%.%.%.%.%.%.%.%.%.%.%.%.%.%.%.%.%.%.%.%.%.%.%.%.",
"%.< { < , & $ $ % % @ $ # % * = & & % % % # = / } | 2 ] : ( < %.",
"%.( ; > = = * & * ; ] 3 5 7 5 5 8 7 6 4 _ > & % ~ < 1 ( : > ^ %.",
"%.~ $ % % & $ ) < 2 1 } [ < } [ | | } [ } 3 1 ! & _ _ ( _ ' ~ %.",
"%.% # $ $ - } 1 | 7 i r B I H w 7 f g 7 < _ < | } ] > { ( > ] %.",
"%.# $ $ % | 0 p F 4.b.2.P  .8.d.(.,.c.7.{.` A b 5 1 ' # / > ^ %.",
"%.$ # $ 4 L 4.m.j.Y.b.H i.s.A.Q.%+K.F %.%+w.4.;.@.&.L } ; ! ! %.",
"%.# # | ;.u.!+a.*.'.l U s.[.0.m.9.).v.}+8+:+/.d n B K &./ - ] %.",
"%.# & J r._+7+h.*.#.Y p.9.9.j.c.4.h.m.y.|+_+D q  .d 1 G $.# - %.",
"%.$ _ ,.M.9+0+W.9.x.m.g.f.s.u.k.A.q.d.x.X G K -.W.c ! d k.1 @ %.",
"%.# f '.=+0+0+2+X./.-.).l.z.M.N.E.z.h.z.u m !+5+I.~ * | j.N @ %.",
"%.= x '.1+0+0+1+C.).;.-.|.A.y.Z.H.n.I.F.w =.p.3+a.L o 2 ;.4.$ %.",
"%.{ O e.9+0+0+<+v.'.;.,.<.s.p.V.y.e.u.f.X *.M 4.s v T z.3.].~ %.",
"%.[ 4.'+9+0+0+3+B.-.-.;._.O.O.W.N.o.Q.m.-+6+#+U.A t &+0+`.'.5 %.",
"%.6 L.(+9+9+9+8+X.<.*.;.G.6+|+ +Z.X 4.%+[+2+9+<+1.E.0+0+|+l.0 %.",
"%.j $+$+9+0+9+9+_+@+2.x.7+9+H.}.|+N.c.X.9+7+1+G.j.1+0+0+0+N.i %.",
"%.e o.X.0+0+9+9+/+K.V.:+0+6+@+Q.8+]+^.1.e.:.K j y.9+0+0+0+)+n %.",
"%.| &.N.0+9+0+9+:+~.^.b. +E.*+^+1+E.E O.-+4.6 N 4+0+0+0+4+'+g %.",
"%.( H k.6+0+0+9+R.z v $.R d.2+0+9+.+S ^+7+]+@.-.9+0+0+0+;+F.< %.",
"%.^ i W #+0+0+*+K (.)+6+,+Q.9+0+0+^+@.>+ +*+:+/.3+0+0+9+Z.I ~ %.",
"%.) 4 Q u.[+1+#.7.7+0+0+M.#+9+1+7+|+:.H.|+-+2+>.~+0+0+]+2.9 ' %.",
"%.= < y D.I.x.T U.0+0+++=.%+^+8.F.[+9.T <+9+5+` $+0+4+k.q / % %.",
"%.$ ( 5 Y #+&.m w 6.6.~.S.{+3+S.<+5+O.(.+.Q.#+w 6.7+z.V | ) @ %.",
"%.# ! } 7 T -.N <.].5.p.Z.2+o.#+w.5+'+I.a...Z k 5.A.H 7 } - # %.",
"%.# * : 1 4 F :.U.K.j.C.I.P.F.7.t..+V.Q.D.c.T.{.T o | [ 8 $ @ %.",
"%.@ @ 2 2 [ | u }.q.C.I.K.J.E.g.I.Q.S.V.P.J.B.-.e | [ 9 - @ @ %.",
"%.# # % 2 a 6 1 3 j J !.7.6.` C R 0.n.m.i.(.D 7 3 3 d ] @ # @ %.",
"%.# # # # - | g h a 5 5 9 0 e n f 0 0 8 6 3 6 a g b ' # # + + %.",
"%.@ @ @ # # # $ ; ^ } 2 3 1 < : 3 3 0 d f c 2 ^ - @ @ @ @ . . %.",
"%.@ # @ # # # # $ # $ $ @ # # # @ # $ # @ @ @ @ @ @ @ @ @ + + %.",
"%.                                                            %.",
"%.%.%.%.%.%.%.%.%.%.%.%.%.%.%.%.%.%.%.%.%.%.%.%.%.%.%.%.%.%.%.%."};
