/* XPM */
static char * image_xpm[] = {
"16 16 123 2",
"  	c None",
". 	c #344977",
"+ 	c #505358",
"@ 	c #38589A",
"# 	c #1763C9",
"$ 	c #256CCE",
"% 	c #2F74D2",
"& 	c #696A6E",
"* 	c #5A7196",
"= 	c #397AD6",
"- 	c #727272",
"; 	c #747474",
"> 	c #787878",
", 	c #4481D9",
"' 	c #7B7B7B",
") 	c #5E81B6",
"! 	c #7E7D7B",
"~ 	c #4F89DD",
"{ 	c #568EE1",
"] 	c #8A8A8A",
"^ 	c #8F8F8F",
"/ 	c #929292",
"( 	c #959595",
"_ 	c #989898",
": 	c #9B9B9B",
"< 	c #9C9B99",
"[ 	c #9C9C9C",
"} 	c #9D9D9D",
"| 	c #9E9E9E",
"1 	c #9F9F9F",
"2 	c #A2A2A2",
"3 	c #7DA8E9",
"4 	c #A3A3A3",
"5 	c #A5A5A5",
"6 	c #A6A6A6",
"7 	c #A8A8A8",
"8 	c #96ABCA",
"9 	c #B1B1B1",
"0 	c #B5B5B5",
"a 	c #B6B6B4",
"b 	c #B8B8B8",
"c 	c #BAB9B5",
"d 	c #B9B9B9",
"e 	c #BAB9B9",
"f 	c #A8BDD8",
"g 	c #BCBCBC",
"h 	c #B3BECF",
"i 	c #BDBDBD",
"j 	c #BEBEBD",
"k 	c #BEBEBE",
"l 	c #BFBFBF",
"m 	c #C0BFBE",
"n 	c #C0C0C0",
"o 	c #ABC6F4",
"p 	c #C3C3C3",
"q 	c #C4C4C4",
"r 	c #C6C5C3",
"s 	c #C6C6C6",
"t 	c #C7C7C7",
"u 	c #C9C9C9",
"v 	c #C3CCDA",
"w 	c #CBCBCB",
"x 	c #B6CFF5",
"y 	c #CCCCCC",
"z 	c #CECECE",
"A 	c #BAD1F8",
"B 	c #D0CFCC",
"C 	c #CFCFCF",
"D 	c #D0D0D0",
"E 	c #D3D1CE",
"F 	c #D1D2D2",
"G 	c #D3D3D2",
"H 	c #D3D3D3",
"I 	c #D5D3D1",
"J 	c #D6D6D6",
"K 	c #D7D7D7",
"L 	c #D8D8D8",
"M 	c #DADADA",
"N 	c #DBDBDB",
"O 	c #DDDDDD",
"P 	c #DEDEDE",
"Q 	c #D5E0EF",
"R 	c #D1E0FC",
"S 	c #D9E3F1",
"T 	c #E2E2E2",
"U 	c #E3E3E3",
"V 	c #DCE5F2",
"W 	c #E4E4E4",
"X 	c #DEE7F4",
"Y 	c #E6E6E5",
"Z 	c #E6E6E6",
"` 	c #E7E7E7",
" .	c #E8E8E8",
"..	c #E1EAF5",
"+.	c #E4ECF8",
"@.	c #ECEBEB",
"#.	c #E6EEF9",
"$.	c #EDEDED",
"%.	c #EFEFEF",
"&.	c #E9F0FB",
"*.	c #F0F0F0",
"=.	c #F2F0EF",
"-.	c #F1F1F1",
";.	c #F2F2F2",
">.	c #EEF4FC",
",.	c #F0F5FE",
"'.	c #F6F5F2",
").	c #F5F5F5",
"!.	c #F7F5F0",
"~.	c #F8F5F0",
"{.	c #F7F5F3",
"].	c #F7F6F4",
"^.	c #F8F6F4",
"/.	c #F2F7FF",
"(.	c #F9F8F6",
"_.	c #FBFBFB",
":.	c #FCFCFA",
"<.	c #FCFCFC",
"[.	c #FDFDFA",
"}.	c #FDFDFD",
"|.	c #FFFFFD",
"1.	c #FFFFFE",
"2.	c #FFFFFF",
"^ ^ ^ ^ ^ ^ ^ ^ ^ ^ ^ ^ ^ ^ ^ ^ ",
"^ 2.R A o x 3 { ~ , = % $ # 2.^ ",
"^ 2././.,.>.&.#.+...X V S Q 2.^ ",
"^ 2.].=.:.1.|.[.(.^.{.'.!.~.2.^ ",
"^ 2.w 0 K W P J M N L J v h 2.^ ",
"^ 2.2.). .O D U *.@.T G f 8 2.^ ",
"^ 2.y p l 0 U Z < ! 9 F I E 2.^ ",
"^ 2.7 2 | 5 -.a . @ + m u k 2.^ ",
"^ 2.7 2 [ 5 $.r * ) & j 6 > 2.^ ",
"^ 2.4 } _ / t Y B c e b ] - 2.^ ",
"^ 2.5 1 : ( ( i z s d ^ ' ; 2.^ ",
"^ 2.L H C w q n n g 0 7 7 7 7 ^ ",
"^ 2.;.;.;.;.-.-.%.*.` 7 2.2.^   ",
"^ 2.<.<.<.<.<.<.<.}.;.7 2.^     ",
"^ 2.2.2.2.2.2.2.2.2._.7 ^       ",
"^ ^ ^ ^ ^ ^ ^ ^ ^ ^ ^ ^         "};
