/* XPM */
static char * patient_xpm[] = {
"16 16 111 2",
"  	c None",
". 	c #1E0F4B",
"+ 	c #2E1A4A",
"@ 	c #2D1B5F",
"# 	c #29206D",
"$ 	c #29267B",
"% 	c #272984",
"& 	c #2B2E88",
"* 	c #403374",
"= 	c #303690",
"- 	c #4B4689",
"; 	c #534882",
"> 	c #4C4C96",
", 	c #555190",
"' 	c #5157A3",
") 	c #5560AD",
"! 	c #5660AE",
"~ 	c #6870B6",
"{ 	c #E64546",
"] 	c #F24141",
"^ 	c #7C78AB",
"/ 	c #7D7EB5",
"( 	c #817EAB",
"_ 	c #8380AE",
": 	c #8782AB",
"< 	c #7E86C2",
"[ 	c #8888A3",
"} 	c #D36C6E",
"| 	c #8187BF",
"1 	c #8088C5",
"2 	c #958C8D",
"3 	c #888BBE",
"4 	c #8E8EA7",
"5 	c #A38892",
"6 	c #858FC8",
"7 	c #9494AC",
"8 	c #8D93C6",
"9 	c #8994CE",
"0 	c #A1A1B2",
"a 	c #C39C7A",
"b 	c #A3A3B8",
"c 	c #CB989F",
"d 	c #C99E86",
"e 	c #A7A7BC",
"f 	c #DE958A",
"g 	c #A9A9BE",
"h 	c #CCA694",
"i 	c #AEAEC2",
"j 	c #A9B0DB",
"k 	c #F3999B",
"l 	c #B2B2D3",
"m 	c #B4B4C5",
"n 	c #C0B4B6",
"o 	c #B3B6D8",
"p 	c #DAB095",
"q 	c #DAB299",
"r 	c #D5B2AE",
"s 	c #B5BBDD",
"t 	c #D3B3BA",
"u 	c #E5B38A",
"v 	c #D6B89E",
"w 	c #BDBDCD",
"x 	c #E7ADB1",
"y 	c #B8BFE1",
"z 	c #BFBFCE",
"A 	c #D5BCA6",
"B 	c #C0C0CF",
"C 	c #EBBA97",
"D 	c #D4BEC7",
"E 	c #EBBD96",
"F 	c #C6C6D5",
"G 	c #C8C8D5",
"H 	c #F0C098",
"I 	c #CBC8D5",
"J 	c #C9C9D6",
"K 	c #F0C19A",
"L 	c #F4C196",
"M 	c #EAC4A4",
"N 	c #CBCBD8",
"O 	c #CCCDDA",
"P 	c #CDCDD9",
"Q 	c #EAC3C8",
"R 	c #FBC699",
"S 	c #F9C89E",
"T 	c #D1D1DD",
"U 	c #F9C9A1",
"V 	c #F7CAA5",
"W 	c #F4CBA8",
"X 	c #D3D2DD",
"Y 	c #FDCCA3",
"Z 	c #D7D7E2",
"` 	c #FCD0AC",
" .	c #FCD1AD",
"..	c #F6D3B6",
"+.	c #DED9E2",
"@.	c #FAD4B4",
"#.	c #FED4B0",
"$.	c #FED4B1",
"%.	c #FFD5B2",
"&.	c #FFD6B2",
"*.	c #DEDEE7",
"=.	c #DFDFE7",
"-.	c #FCD9BB",
";.	c #F9DABF",
">.	c #FDDABD",
",.	c #FADCC3",
"'.	c #FEDBBE",
").	c #FADCC4",
"!.	c #E5E5EC",
"~.	c #EAEAF0",
"{.	c #F0F0F4",
"            < 8 3               ",
"        ~ j y s o l _           ",
"        1 9 9 6 | / ^ ;         ",
"      = ! : ( ) ' > - * .       ",
"      % 5 R C , & $ # @ +       ",
"      d L S Y U q h p K a       ",
"      u H V ` #.%.&.$. .        ",
"        E W @.-.'.'.>.v         ",
"          M ..;.,.).A           ",
"            n f r 2             ",
"          e P t X B             ",
"        7 z G c I J m           ",
"        b w O } D T N 0         ",
"      [ g F +.{ x !.*.J         ",
"      4 i Z Q ] k {.~.=.        ",
"                                "};
