/* XPM */
static char * series_xpm[] = {
"16 16 106 2",
"  	c None",
". 	c #2C4574",
"+ 	c #2041B3",
"@ 	c #3A4560",
"# 	c #254BB9",
"$ 	c #2C55C0",
"% 	c #535B6A",
"& 	c #575B64",
"* 	c #3260C6",
"= 	c #396ACD",
"- 	c #3F73D3",
"; 	c #6D6D80",
"> 	c #4D75B7",
", 	c #4E77BB",
"' 	c #4F7ABD",
") 	c #447CD9",
"! 	c #507CC1",
"~ 	c #517FC4",
"{ 	c #797979",
"] 	c #4883DD",
"^ 	c #5282C8",
"/ 	c #4883DE",
"( 	c #5384CB",
"_ 	c #4B88E1",
": 	c #5487D0",
"< 	c #818181",
"[ 	c #558AD3",
"} 	c #568CD6",
"| 	c #848484",
"1 	c #578FDA",
"2 	c #5992DE",
"3 	c #7F8BA8",
"4 	c #5995E1",
"5 	c #5995E2",
"6 	c #5A95E1",
"7 	c #5996E1",
"8 	c #5A96E2",
"9 	c #5A98E5",
"0 	c #5B9AE8",
"a 	c #5C9AE8",
"b 	c #5B9BE8",
"c 	c #5B9BE9",
"d 	c #6797E2",
"e 	c #4FA2FF",
"f 	c #969696",
"g 	c #9A9A9A",
"h 	c #62ABFF",
"i 	c #88A3CB",
"j 	c #A0A0A0",
"k 	c #A1A1A1",
"l 	c #A4A4A4",
"m 	c #A5A5A5",
"n 	c #A7A7A7",
"o 	c #A9A9A9",
"p 	c #AAAAAA",
"q 	c #ABABAB",
"r 	c #A2ADC1",
"s 	c #ACACAC",
"t 	c #ADADAD",
"u 	c #7AB8FF",
"v 	c #AEAEAE",
"w 	c #B0B0B0",
"x 	c #79C8FF",
"y 	c #BABABA",
"z 	c #93C5FF",
"A 	c #93C6FF",
"B 	c #BDBDBD",
"C 	c #8BCFFF",
"D 	c #C2C2C2",
"E 	c #95D4FF",
"F 	c #C9C9C9",
"G 	c #AAD1F3",
"H 	c #C8C8DA",
"I 	c #CACACA",
"J 	c #CBCBCB",
"K 	c #A0D8FF",
"L 	c #ADD3FF",
"M 	c #AED3FF",
"N 	c #CDCDCD",
"O 	c #ADD4FF",
"P 	c #CFCFCF",
"Q 	c #ACDDFF",
"R 	c #BCDAF5",
"S 	c #D6D6D6",
"T 	c #D8D8D8",
"U 	c #B9E3FF",
"V 	c #C7E1FF",
"W 	c #C5E7FF",
"X 	c #C5E8FF",
"Y 	c #D1ECFF",
"Z 	c #D2ECFF",
"` 	c #D1EDFF",
" .	c #D2EDFF",
"..	c #DDF1FF",
"+.	c #DDF2FF",
"@.	c #E7F5FF",
"#.	c #E8F5FF",
"$.	c #E7F6FF",
"%.	c #E8F6FF",
"&.	c #F1F9FF",
"*.	c #F2F9FF",
"=.	c #F1FAFF",
"-.	c #F9FCFF",
";.	c #F9FDFF",
">.	c #FEFEFF",
",.	c #FFFFFF",
"    b 0 a c b b                 ",
"  9 ;.-.;.-.-.-.9               ",
"5 &.&.&.=.&.*.&.i 6 7 8 7 4 6   ",
"2 %.%.%.%.%.@.%.#.#.@.%.#.%.$.2 ",
"1 ..............+._ _ _ _ _ _ _ ",
"} ` `  .`  .Y Z _ R >.>.>.>.V _ ",
"[ W X _ _ _ _ _ G >.M O O L L _ ",
": U ] A >.>.>.>.>.z A ; ; ; ; / ",
"( Q ) u ; ; ; ; ; ; ; ,.,.,.,.; ",
"^ K - h ; ,.,.,.,.,.T S o r S ; ",
"~ E = e ; S N J n F f { j q I ; ",
"! C * ,.; S o t y B @ 3 & w v ; ",
"' C $ ,.; S m n D P . d % p | ; ",
", x # H ; S k k g P D n l s < ; ",
"  > + + ; S S S S S S S S S S ; ",
"        ; ; ; ; ; ; ; ; ; ; ; ; "};
