/* XPM */
static char * study_xpm[] = {
"16 16 150 2",
"  	c None",
". 	c #474547",
"+ 	c #4B494B",
"@ 	c #4A4A4A",
"# 	c #4F4D4B",
"$ 	c #535353",
"% 	c #555355",
"& 	c #555555",
"* 	c #575757",
"= 	c #585858",
"- 	c #595959",
"; 	c #5D575D",
"> 	c #666166",
", 	c #646464",
"' 	c #747373",
") 	c #898888",
"! 	c #8B8A8A",
"~ 	c #8D8B88",
"{ 	c #8C8B8B",
"] 	c #8E8E8E",
"^ 	c #9B9B9B",
"/ 	c #9F9C9B",
"( 	c #9F9F9F",
"_ 	c #A2A2A2",
": 	c #A5A4A5",
"< 	c #A7A4A3",
"[ 	c #A6A5A5",
"} 	c #A6A6A6",
"| 	c #A7A6A6",
"1 	c #6FCE6C",
"2 	c #A7A7A7",
"3 	c #A8A8A8",
"4 	c #A9A9A9",
"5 	c #AAAAAA",
"6 	c #ABABAB",
"7 	c #AEAEAE",
"8 	c #B1B1B1",
"9 	c #8CBCE7",
"0 	c #B4B2B2",
"a 	c #8CBDEA",
"b 	c #B5B3B4",
"c 	c #8CC0EE",
"d 	c #8CC2EC",
"e 	c #86C5F3",
"f 	c #9CBDE5",
"g 	c #B8B8B8",
"h 	c #90C8F2",
"i 	c #BEBDBC",
"j 	c #9FC5ED",
"k 	c #A0C6ED",
"l 	c #A5D2A5",
"m 	c #9EC8EE",
"n 	c #ABC4E4",
"o 	c #97CFF6",
"p 	c #B1C7E5",
"q 	c #9DD1F4",
"r 	c #9AD3F8",
"s 	c #B0CBEE",
"t 	c #B6CCE7",
"u 	c #A5D3F6",
"v 	c #B8CDE7",
"w 	c #C8CACD",
"x 	c #C8CACE",
"y 	c #CACACA",
"z 	c #B9CEE7",
"A 	c #A2D7F7",
"B 	c #A5D6F5",
"C 	c #BACEE7",
"D 	c #B7CFEE",
"E 	c #CFCDCB",
"F 	c #BBDCBB",
"G 	c #B4D7F6",
"H 	c #D0D0D0",
"I 	c #AEDCF6",
"J 	c #ABDEFA",
"K 	c #D2D2D2",
"L 	c #CAD8CA",
"M 	c #D0D3DA",
"N 	c #CCD4E3",
"O 	c #C2D7F1",
"P 	c #CAD5E9",
"Q 	c #B5DDF8",
"R 	c #C4D7F0",
"S 	c #B3E0FA",
"T 	c #CFD6E5",
"U 	c #CED7E5",
"V 	c #B6E1FB",
"W 	c #D0D8E6",
"X 	c #B7E2F8",
"Y 	c #D9D9D9",
"Z 	c #D2DAE8",
"` 	c #D8DAD8",
" .	c #D7DED3",
"..	c #B8E7FD",
"+.	c #BCE6F9",
"@.	c #DCDCDC",
"#.	c #DDDCDD",
"$.	c #D5DEEC",
"%.	c #DDDDDD",
"&.	c #C4E4FC",
"*.	c #D7DEEB",
"=.	c #D8DEEB",
"-.	c #D9DEEB",
";.	c #DEDEDE",
">.	c #C8E4FB",
",.	c #D8DFEC",
"'.	c #C6E6FC",
").	c #DFDFDF",
"!.	c #C9E5FB",
"~.	c #CAE5FB",
"{.	c #DDDEED",
"].	c #CAE5FC",
"^.	c #C9E6FB",
"/.	c #C4E9F9",
"(.	c #CAE6FB",
"_.	c #C9E7FB",
":.	c #CCE7FB",
"<.	c #BFEDFF",
"[.	c #CAE8FC",
"}.	c #E2E2E2",
"|.	c #C7EBFE",
"1.	c #E4E2E0",
"2.	c #CFE9FB",
"3.	c #CCEBF9",
"4.	c #CBEBFC",
"5.	c #E5E3E1",
"6.	c #E4E4E4",
"7.	c #C5F0FF",
"8.	c #E0E5F1",
"9.	c #D0ECFC",
"0.	c #D1EDF9",
"a.	c #E6E6E6",
"b.	c #E9E6E5",
"c.	c #E7E7E7",
"d.	c #CDF1FF",
"e.	c #E8E8E7",
"f.	c #EBEAE8",
"g.	c #ECECEC",
"h.	c #EEEEEE",
"i.	c #F3F3F3",
"j.	c #F4F4F4",
"k.	c #F7F6F4",
"l.	c #F7F7F7",
"m.	c #F8F8F8",
"n.	c #F8FAFD",
"o.	c #FAFAFA",
"p.	c #FCFAF9",
"q.	c #FFFFFD",
"r.	c #FFFFFE",
"s.	c #FFFFFF",
"          2 }.Y Y y             ",
"    i.h.c.j.m.l.m.o.g.6.m.(     ",
"    j.7 5 4 3 3 3 3 6 } Y 6     ",
"    8 g ^ ( ( ( ( ( ( ^ K @     ",
"      H ! ! { { { { ) 2 g       ",
"      i 0 [ | | | | : E '       ",
"      $.n v z C z v t p w       ",
"    / s G >.!.(.(.~.].j P       ",
"    x f &.^.:.2._.Q u c D ~     ",
"    U m '.[.9.4.S A o e k b     ",
"    R h V |.d.7.<...J r a M     ",
"  < O d B X /.0.3.+.I q 9 8.#   ",
"  8 n.T N Z ,.-.=.*.W N {.s.,   ",
"  _ e.5.1.f.p.r.q.k.b. .1 F >   ",
"  ] a.;.;.%.%.).).@.#.` l L +   ",
"    = - = * & & & $ $ % ; .     "};
